# xmcd CD database generated by RipIT
#
# Track frame offsets:
# 150
# 11901
# 24569
# 37182
# 50279
# 63978
# 76018
# 87402
# 99450
# 117255
# 129208
# 140803
# 159805
# 170328
# 188674
# 198791
# 211879
# 225167
# 236590
# 247715
# 261456
# 276454
# 289327
# 302348
# 316399
#
# Disc length: 4399 seconds
#
# Revision: 0
# Processed by: cddbd v1.5.2PL0 Copyright (c) Steve Scherf et al.
# Submitted via: RipIT 3.9.0 www.suwald.com/ripit/ripit.html on 2014-07-07 at 19:22
#
DISCID=4d112d19
DTITLE=B. B. King - The Kent Years Disc 2
DYEAR=2013
DGENRE=blues
TTITLE0=Please_Accept_My_Love
TTITLE1=Please_Love_Me
TTITLE2=Ten_Long_Years
TTITLE3=When_My_Heart_Beats_Like_a_Hammer
TTITLE4=You_Upset_Me_Baby
TTITLE5=The_Fool
TTITLE6=Fishin'_After_Me
TTITLE7=Get_Out_Of_Here
TTITLE8=Hold_That_Train
TTITLE9=Understand
TTITLE10=Someday
TTITLE11=You're_Breaking_My_Heart
TTITLE12=Bad_Case_Of_Love
TTITLE13=My_Sometime_Baby
TTITLE14=Lonely
TTITLE15=Gonna_Miss_You_Around_Here
TTITLE16=Hully_Gully_Twist
TTITLE17=3_O'Clock_Stomp
TTITLE18=Mashed_Potato_Twist
TTITLE19=Mashing_The_Popeye
TTITLE20=Tell_Me_Baby
TTITLE21=Going_Down_Show
TTITLE22=Blues_For_Me
TTITLE23=Things_Are_Not_The_Same
TTITLE24=You've_Been_An_Angel
EXTD=
EXTT0=
EXTT1=
EXTT2=
EXTT3=
EXTT4=
EXTT5=
EXTT6=
EXTT7=
EXTT8=
EXTT9=
EXTT10=
EXTT11=
EXTT12=
EXTT13=
EXTT14=
EXTT15=
EXTT16=
EXTT17=
EXTT18=
EXTT19=
EXTT20=
EXTT21=
EXTT22=
EXTT23=
EXTT24=
PLAYORDER=
